<svg id="Layer_1" data-name="Layer 1" xmlns="http://www.w3.org/2000/svg" viewBox="0 0 457.16 277.14"><defs><style>.cls-1{fill:#3a3a3a;}.cls-2{fill:#fbbf75;}.cls-3{fill:#e77434;}.cls-4{fill:#7572b5;}.cls-5{fill:#d46327;}.cls-6{fill:#f2ee7e;}.cls-7{fill:#fdf7b5;}.cls-8{fill:#e4d755;}.cls-9{isolation:isolate;}.cls-10{fill:#e4a05f;}.cls-11{fill:#e29d5c;}.cls-12{fill:#ab4b25;}.cls-13{fill:#d86a2f;}.cls-14{fill:#e67333;}.cls-15{fill:#d6682f;}.cls-16{fill:#f9bd74;}.cls-17{fill:#e4d759;}.cls-18{fill:#eadb7c;}.cls-19{fill:#e9db7a;}.cls-20{fill:#fcf5b3;}.cls-21{fill:#e9da79;}.cls-22{fill:#f1ec7d;}.cls-23{fill:#f9f9fa;}</style></defs><title>WFL</title><rect class="cls-1" x="261.84" y="88.52" width="163.5" height="163.5"/><rect class="cls-2" x="67.72" width="65" height="65"/><rect class="cls-3" x="132.56" width="65" height="65"/><rect class="cls-4" x="2.89" width="65" height="65"/><rect class="cls-5" x="197.56" width="65" height="65"/><rect class="cls-6" x="327.19" width="65" height="65"/><rect class="cls-7" x="262.23" width="65" height="65"/><rect class="cls-8" x="392.16" width="65" height="65"/><g class="cls-9"><rect class="cls-10" x="107.58" y="89.48" width="6.75" height="5.18"/><rect class="cls-10" x="88.14" y="89.48" width="13.63" height="5.18"/><rect class="cls-10" x="68.71" y="89.48" width="13.62" height="5.18"/><rect class="cls-10" x="56.14" y="89.48" width="6.74" height="5.18"/><polygon class="cls-11" points="116 92.29 116 97.46 114.33 94.66 114.33 89.48 116 92.29"/><rect class="cls-12" x="91.06" y="92.29" width="10.71" height="5.18"/><rect class="cls-12" x="110.5" y="92.29" width="5.51" height="5.18"/><rect class="cls-12" x="71.62" y="92.29" width="10.71" height="5.18"/><rect class="cls-12" x="59.05" y="92.29" width="3.83" height="5.18"/><polygon class="cls-11" points="56.15 89.48 56.15 94.66 51.81 101.92 51.81 96.75 56.15 89.48"/><polygon class="cls-11" points="118.67 96.75 118.67 101.92 116 97.46 116 92.29 118.67 96.75"/><rect class="cls-12" x="88.14" y="96.75" width="2.92" height="5.18"/><polygon class="cls-12" points="59.05 92.29 59.05 97.46 56.39 101.92 56.39 96.75 59.05 92.29"/><rect class="cls-13" x="56.39" y="96.75" width="6.5" height="5.18"/><polygon class="cls-12" points="82.33 89.48 82.33 92.29 71.62 92.29 71.62 96.75 68.71 96.75 68.71 89.48 82.33 89.48"/><polygon class="cls-12" points="62.89 89.48 62.89 92.29 59.05 92.29 56.39 96.75 51.81 96.75 56.15 89.48 62.89 89.48"/><rect class="cls-14" x="71.62" y="92.29" width="10.71" height="4.46"/><rect class="cls-12" x="51.81" y="96.75" width="4.58" height="5.18"/><rect class="cls-13" x="71.62" y="96.75" width="10.71" height="5.18"/><polygon class="cls-12" points="114.33 89.48 116 92.29 110.5 92.29 110.5 96.75 107.58 96.75 107.58 89.48 114.33 89.48"/><polygon class="cls-12" points="101.77 89.48 101.77 92.29 91.06 92.29 91.06 96.75 88.14 96.75 88.14 89.48 101.77 89.48"/><rect class="cls-12" x="68.71" y="96.75" width="2.91" height="5.18"/><rect class="cls-13" x="91.06" y="96.75" width="10.71" height="5.18"/><rect class="cls-13" x="110.5" y="96.75" width="8.17" height="5.18"/><rect class="cls-12" x="107.58" y="96.75" width="2.92" height="5.18"/><rect class="cls-10" x="107.58" y="102.36" width="13.63" height="5.18"/><rect class="cls-10" x="88.14" y="102.36" width="13.63" height="5.18"/><rect class="cls-10" x="68.71" y="102.36" width="13.62" height="5.18"/><rect class="cls-10" x="49.27" y="102.36" width="13.62" height="5.18"/><rect class="cls-12" x="71.62" y="105.17" width="10.71" height="5.18"/><rect class="cls-12" x="110.5" y="105.17" width="10.71" height="5.18"/><rect class="cls-12" x="91.06" y="105.17" width="10.71" height="5.18"/><rect class="cls-12" x="52.18" y="105.17" width="10.71" height="5.18"/><polygon class="cls-11" points="129.89 115.52 129.89 120.69 127.02 115.89 127.02 110.72 129.89 115.52"/><polygon class="cls-11" points="43.45 110.72 43.45 115.89 40.58 120.69 40.58 115.52 43.45 110.72"/><rect class="cls-14" x="91.06" y="105.17" width="10.71" height="10.35"/><rect class="cls-13" x="91.06" y="115.52" width="10.71" height="5.18"/><rect class="cls-12" x="88.14" y="115.52" width="2.92" height="5.18"/><polygon class="cls-12" points="127.02 110.72 129.89 115.52 127.02 115.52 127.02 110.72"/><polygon class="cls-12" points="121.21 102.36 121.21 105.17 110.5 105.17 110.5 115.52 107.58 115.52 107.58 102.36 121.21 102.36"/><polygon class="cls-12" points="82.33 102.36 82.33 105.17 71.62 105.17 71.62 115.52 68.71 115.52 68.71 102.36 82.33 102.36"/><rect class="cls-12" x="107.58" y="115.52" width="2.92" height="5.18"/><rect class="cls-14" x="71.62" y="105.17" width="10.71" height="10.35"/><rect class="cls-13" x="71.62" y="115.52" width="10.71" height="5.18"/><rect class="cls-12" x="127.02" y="115.52" width="2.87" height="5.18"/><polygon class="cls-12" points="62.89 102.36 62.89 105.17 52.18 105.17 52.18 115.52 49.27 115.52 49.27 102.36 62.89 102.36"/><rect class="cls-12" x="68.71" y="115.52" width="2.91" height="5.18"/><rect class="cls-12" x="49.27" y="115.52" width="2.91" height="5.18"/><rect class="cls-12" x="40.58" y="115.52" width="2.86" height="5.18"/><rect class="cls-13" x="52.18" y="115.52" width="10.71" height="5.18"/><rect class="cls-13" x="110.5" y="115.52" width="10.71" height="5.18"/><rect class="cls-14" x="110.5" y="105.17" width="10.71" height="10.35"/><polygon class="cls-12" points="101.77 102.36 101.77 105.17 91.06 105.17 91.06 115.52 88.14 115.52 88.14 102.36 101.77 102.36"/><rect class="cls-10" x="127.02" y="121.14" width="6.23" height="5.18"/><rect class="cls-10" x="49.27" y="121.14" width="13.62" height="5.18"/><rect class="cls-10" x="37.22" y="121.14" width="6.23" height="5.18"/><rect class="cls-10" x="68.71" y="121.14" width="13.62" height="5.18"/><rect class="cls-10" x="107.58" y="121.14" width="13.63" height="5.18"/><rect class="cls-10" x="88.14" y="121.14" width="13.63" height="5.18"/><polygon class="cls-11" points="134.93 123.95 134.93 129.13 133.25 126.32 133.25 121.14 134.93 123.95"/><rect class="cls-12" x="110.5" y="123.95" width="10.71" height="5.18"/><rect class="cls-12" x="91.06" y="123.95" width="10.71" height="5.18"/><rect class="cls-12" x="40.13" y="123.95" width="3.31" height="5.18"/><rect class="cls-12" x="129.93" y="123.95" width="5" height="5.18"/><rect class="cls-12" x="71.62" y="123.95" width="10.71" height="5.18"/><rect class="cls-12" x="52.18" y="123.95" width="10.71" height="5.18"/><polygon class="cls-11" points="141.11 134.29 141.11 139.47 134.93 129.13 134.93 123.95 141.11 134.29"/><polygon class="cls-11" points="37.22 121.14 37.22 126.32 29.36 139.47 29.36 134.29 37.22 121.14"/><polygon class="cls-12" points="40.13 123.95 40.13 129.13 33.94 139.47 33.94 134.29 40.13 123.95"/><polygon class="cls-12" points="133.25 121.14 134.93 123.95 129.93 123.95 129.93 134.29 127.02 134.29 127.02 121.14 133.25 121.14"/><polygon class="cls-12" points="43.45 121.14 43.45 123.95 40.13 123.95 33.94 134.29 29.36 134.29 37.22 121.14 43.45 121.14"/><polygon class="cls-12" points="62.89 121.14 62.89 123.95 52.18 123.95 52.18 134.29 49.27 134.29 49.27 121.14 62.89 121.14"/><rect class="cls-12" x="107.58" y="134.29" width="2.92" height="5.18"/><polygon class="cls-12" points="121.21 121.14 121.21 123.95 110.5 123.95 110.5 134.29 107.58 134.29 107.58 121.14 121.21 121.14"/><rect class="cls-12" x="49.27" y="134.29" width="2.91" height="5.18"/><rect class="cls-12" x="127.02" y="134.29" width="2.91" height="5.18"/><rect class="cls-13" x="33.94" y="134.29" width="9.5" height="5.18"/><rect class="cls-13" x="71.62" y="134.29" width="10.71" height="5.18"/><rect class="cls-14" x="91.06" y="123.95" width="10.71" height="10.35"/><rect class="cls-13" x="91.06" y="134.29" width="10.71" height="5.18"/><polygon class="cls-14" points="134.93 123.95 141.11 134.29 129.93 134.29 129.93 123.95 134.93 123.95"/><rect class="cls-13" x="129.93" y="134.29" width="11.19" height="5.18"/><rect class="cls-14" x="110.5" y="123.95" width="10.71" height="10.35"/><rect class="cls-12" x="88.14" y="134.29" width="2.92" height="5.18"/><rect class="cls-12" x="29.36" y="134.29" width="4.58" height="5.18"/><polygon class="cls-12" points="101.77 121.14 101.77 123.95 91.06 123.95 91.06 134.29 88.14 134.29 88.14 121.14 101.77 121.14"/><rect class="cls-14" x="52.18" y="123.95" width="10.71" height="10.35"/><rect class="cls-13" x="110.5" y="134.29" width="10.71" height="5.18"/><rect class="cls-12" x="68.71" y="134.29" width="2.91" height="5.18"/><rect class="cls-13" x="52.18" y="134.29" width="10.71" height="5.18"/><polygon class="cls-12" points="82.33 121.14 82.33 123.95 71.62 123.95 71.62 134.29 68.71 134.29 68.71 121.14 82.33 121.14"/><rect class="cls-10" x="68.71" y="139.92" width="13.62" height="5.18"/><rect class="cls-10" x="49.27" y="139.92" width="13.62" height="5.18"/><rect class="cls-10" x="107.58" y="139.92" width="13.63" height="5.18"/><rect class="cls-10" x="28.11" y="139.92" width="15.34" height="5.18"/><rect class="cls-10" x="127.02" y="139.92" width="15.34" height="5.18"/><rect class="cls-10" x="88.14" y="139.92" width="13.63" height="5.18"/><rect class="cls-12" x="52.18" y="142.73" width="10.71" height="5.18"/><rect class="cls-12" x="110.5" y="142.73" width="10.71" height="5.18"/><polygon class="cls-12" points="142.37 139.92 142.37 145.09 140.68 147.9 140.68 142.73 142.37 139.92"/><rect class="cls-12" x="129.93" y="142.73" width="10.75" height="5.18"/><rect class="cls-12" x="71.62" y="142.73" width="10.71" height="5.18"/><rect class="cls-12" x="31.02" y="142.73" width="12.43" height="5.18"/><rect class="cls-12" x="91.06" y="142.73" width="10.71" height="5.18"/><polygon class="cls-12" points="101.77 139.92 101.77 142.73 91.06 142.73 91.06 153.07 88.14 153.07 88.14 139.92 101.77 139.92"/><rect class="cls-13" x="110.5" y="153.07" width="10.71" height="5.18"/><rect class="cls-12" x="88.14" y="153.07" width="2.92" height="5.18"/><polygon class="cls-15" points="37.2 153.07 37.2 158.25 31.02 147.9 31.02 142.73 37.2 153.07"/><polygon class="cls-12" points="35.98 153.07 35.98 158.25 28.11 145.09 28.11 139.92 35.98 153.07"/><rect class="cls-12" x="35.98" y="153.07" width="1.22" height="5.18"/><rect class="cls-13" x="37.2" y="153.07" width="6.25" height="5.18"/><rect class="cls-13" x="91.06" y="153.07" width="10.71" height="5.18"/><rect class="cls-14" x="91.06" y="142.73" width="10.71" height="10.35"/><rect class="cls-14" x="52.18" y="142.73" width="10.71" height="10.35"/><rect class="cls-13" x="52.18" y="153.07" width="10.71" height="5.18"/><rect class="cls-12" x="68.71" y="153.07" width="2.91" height="5.18"/><rect class="cls-12" x="49.27" y="153.07" width="2.91" height="5.18"/><rect class="cls-13" x="71.62" y="153.07" width="10.71" height="5.18"/><rect class="cls-14" x="71.62" y="142.73" width="10.71" height="10.35"/><polygon class="cls-12" points="43.45 139.92 43.45 142.73 31.02 142.73 37.2 153.07 35.98 153.07 28.11 139.92 43.45 139.92"/><rect class="cls-12" x="107.58" y="153.07" width="2.92" height="5.18"/><rect class="cls-13" x="129.93" y="153.07" width="4.57" height="5.18"/><rect class="cls-12" x="127.02" y="153.07" width="2.91" height="5.18"/><polygon class="cls-15" points="140.68 142.73 140.68 147.9 134.5 158.25 134.5 153.07 140.68 142.73"/><polygon class="cls-14" points="140.68 142.73 134.5 153.07 129.93 153.07 129.93 142.73 140.68 142.73"/><rect class="cls-14" x="110.5" y="142.73" width="10.71" height="10.35"/><rect class="cls-10" x="88.14" y="158.7" width="13.63" height="5.18"/><rect class="cls-10" x="127.02" y="158.7" width="4.12" height="5.18"/><rect class="cls-10" x="39.33" y="158.7" width="4.11" height="5.18"/><rect class="cls-10" x="107.58" y="158.7" width="13.63" height="5.18"/><rect class="cls-10" x="68.71" y="158.7" width="13.62" height="5.18"/><rect class="cls-10" x="49.27" y="158.7" width="13.62" height="5.18"/><rect class="cls-12" x="52.18" y="161.5" width="10.71" height="5.18"/><rect class="cls-12" x="110.5" y="161.5" width="10.71" height="5.18"/><rect class="cls-12" x="71.62" y="161.5" width="10.71" height="5.18"/><rect class="cls-12" x="91.06" y="161.5" width="10.71" height="5.18"/><rect class="cls-12" x="42.24" y="161.5" width="1.21" height="5.18"/><polygon class="cls-14" points="43.45 161.5 43.45 163.52 42.24 161.5 43.45 161.5"/><polygon class="cls-15" points="43.45 163.52 43.45 168.7 42.24 166.68 42.24 161.5 43.45 163.52"/><polygon class="cls-12" points="131.14 158.7 131.14 163.87 127.02 170.76 127.02 165.58 131.14 158.7"/><polygon class="cls-12" points="43.45 165.58 43.45 170.76 39.33 163.87 39.33 158.7 43.45 165.58"/><polygon class="cls-12" points="43.45 158.7 43.45 161.5 42.24 161.5 43.45 163.52 43.45 165.58 39.33 158.7 43.45 158.7"/><rect class="cls-12" x="88.14" y="171.85" width="2.92" height="5.18"/><rect class="cls-13" x="110.5" y="171.85" width="10.71" height="5.18"/><rect class="cls-14" x="71.62" y="161.5" width="10.71" height="10.35"/><polygon class="cls-12" points="62.89 158.7 62.89 161.5 52.18 161.5 52.18 171.85 49.27 171.85 49.27 158.7 62.89 158.7"/><rect class="cls-13" x="52.18" y="171.85" width="10.71" height="5.18"/><rect class="cls-14" x="52.18" y="161.5" width="10.71" height="10.35"/><rect class="cls-13" x="71.62" y="171.85" width="10.71" height="5.18"/><rect class="cls-12" x="49.27" y="171.85" width="2.91" height="5.18"/><polygon class="cls-12" points="101.77 158.7 101.77 161.5 91.06 161.5 91.06 171.85 88.14 171.85 88.14 158.7 101.77 158.7"/><rect class="cls-12" x="107.58" y="171.85" width="2.92" height="5.18"/><polygon class="cls-12" points="121.21 158.7 121.21 161.5 110.5 161.5 110.5 171.85 107.58 171.85 107.58 158.7 121.21 158.7"/><rect class="cls-12" x="68.71" y="171.85" width="2.91" height="5.18"/><rect class="cls-13" x="91.06" y="171.85" width="10.71" height="5.18"/><rect class="cls-14" x="91.06" y="161.5" width="10.71" height="10.35"/><rect class="cls-10" x="88.14" y="177.47" width="13.63" height="5.18"/><rect class="cls-10" x="50.56" y="177.47" width="12.33" height="5.18"/><rect class="cls-10" x="107.58" y="177.47" width="12.34" height="5.18"/><rect class="cls-10" x="68.71" y="177.47" width="13.62" height="5.18"/><rect class="cls-12" x="71.62" y="180.28" width="10.71" height="5.18"/><rect class="cls-12" x="53.46" y="180.28" width="9.42" height="5.18"/><rect class="cls-12" x="91.06" y="180.28" width="10.71" height="5.18"/><polygon class="cls-12" points="119.92 177.47 119.92 182.65 118.24 185.46 118.24 180.28 119.92 177.47"/><rect class="cls-12" x="110.5" y="180.28" width="7.74" height="5.18"/><rect class="cls-12" x="107.58" y="186.82" width="2.92" height="5.18"/><rect class="cls-12" x="88.14" y="186.82" width="2.92" height="5.18"/><polygon class="cls-15" points="57.37 186.82 57.37 192 53.46 185.46 53.46 180.28 57.37 186.82"/><polygon class="cls-12" points="56.15 186.82 56.15 192 50.56 182.65 50.56 177.47 56.15 186.82"/><polygon class="cls-12" points="101.77 177.47 101.77 180.28 91.06 180.28 91.06 186.82 88.14 186.82 88.14 177.47 101.77 177.47"/><rect class="cls-13" x="71.62" y="186.82" width="10.71" height="5.18"/><rect class="cls-14" x="71.62" y="180.28" width="10.71" height="6.54"/><rect class="cls-14" x="91.06" y="180.28" width="10.71" height="6.54"/><rect class="cls-13" x="91.06" y="186.82" width="10.71" height="5.18"/><polygon class="cls-14" points="118.24 180.28 114.33 186.82 110.5 186.82 110.5 180.28 118.24 180.28"/><polygon class="cls-15" points="118.24 180.28 118.24 185.46 114.33 192 114.33 186.82 118.24 180.28"/><rect class="cls-13" x="110.5" y="186.82" width="3.83" height="5.18"/><rect class="cls-12" x="56.14" y="186.82" width="1.22" height="5.18"/><rect class="cls-12" x="68.71" y="186.82" width="2.91" height="5.18"/><rect class="cls-13" x="57.37" y="186.82" width="5.52" height="5.18"/><polygon class="cls-14" points="62.89 180.28 62.89 186.82 57.37 186.82 53.46 180.28 62.89 180.28"/><path class="cls-16" d="M137.22,98.61l32,53.54-32,53.54h-64l-32-53.54,32-53.54Zm17.26,68.46,6.18-10.34,1.68-2.81H147v13.15h7.48M63.42,156.73v-2.81H48.09L56,167.07h7.47V156.73M147,135.14v13.15h14.09L154.91,138l-1.68-2.81H147M63.42,138v-2.81H57.2l-7.86,13.15H63.42V138m58.32,0v-2.81H108.12v13.15h13.62V138m0,37.55v-2.8H108.12v13.15h13.62V175.5M141.18,138v-2.81H127.56v13.15h13.62V138m0,37.55v-2.8H127.56v13.15h13.62V175.5m-19.44-56.33v-2.81H108.12v13.16h13.62V119.17m0,37.56v-2.81H108.12v13.15h13.62V156.73m19.44-37.56v-2.81H127.56v13.16h13.62V119.17m0,37.56v-2.81H127.56v13.15h13.62V156.73M102.3,175.5v-2.8H88.69v13.15H102.3V175.5m0-37.55v-2.81H88.69v13.15H102.3V138m0-18.78v-2.81H88.69v13.16H102.3V119.17M82.86,138v-2.81H69.25v13.15H82.86V138m19.44,18.78v-2.81H88.69v13.15H102.3V156.73M82.86,175.5v-2.8H69.25v13.15H82.86V175.5m0-56.33v-2.81H69.25v13.16H82.86V119.17m0,37.56v-2.81H69.25v13.15H82.86V156.73m38.88,37.55v-2.81H108.12v9.35h13.62v-6.54m-19.44,0v-2.81H88.69v9.35H102.3v-6.54m35.91,0,1.69-2.81H127.56v9.35h6.75l3.9-6.54m-55.35,0v-2.81H70.53l5.59,9.35h6.74v-6.54m38.88-88v-2.81H108.12v7.27h13.62v-4.46m-19.44,0v-2.81H88.69v7.27H102.3v-4.46m25.26-2.81v7.27h11.09L136,106.29l-1.67-2.81h-6.75m-44.7,2.81v-2.81H76.12l-4.33,7.27H82.86v-4.46M147,179.58l4.12-6.88H147v6.88M63.42,175.5v-2.8H59.31l4.11,6.88V175.5M147,124.72v4.8h2.87l-2.87-4.8m-83.58,4.8v-4.8l-2.86,4.8h2.86" transform="translate(-19.98 -14)"/><polygon class="cls-14" points="62.89 92.29 62.89 96.75 56.39 96.75 59.05 92.29 62.89 92.29"/><polygon class="cls-14" points="116 92.29 118.67 96.75 110.5 96.75 110.5 92.29 116 92.29"/><rect class="cls-14" x="91.06" y="92.29" width="10.71" height="4.46"/><rect class="cls-14" x="52.18" y="105.17" width="10.71" height="10.35"/><polygon class="cls-12" points="43.45 110.72 43.45 115.52 40.58 115.52 43.45 110.72"/><polygon class="cls-14" points="43.45 123.95 43.45 134.29 33.94 134.29 40.13 123.95 43.45 123.95"/><rect class="cls-14" x="71.62" y="123.95" width="10.71" height="10.35"/><polygon class="cls-14" points="43.45 142.73 43.45 153.07 37.2 153.07 31.02 142.73 43.45 142.73"/><polygon class="cls-12" points="62.89 139.92 62.89 142.73 52.18 142.73 52.18 153.07 49.27 153.07 49.27 139.92 62.89 139.92"/><polygon class="cls-12" points="82.33 139.92 82.33 142.73 71.62 142.73 71.62 153.07 68.71 153.07 68.71 139.92 82.33 139.92"/><polygon class="cls-12" points="142.37 139.92 140.68 142.73 129.93 142.73 129.93 153.07 127.02 153.07 127.02 139.92 142.37 139.92"/><polygon class="cls-12" points="121.21 139.92 121.21 142.73 110.5 142.73 110.5 153.07 107.58 153.07 107.58 139.92 121.21 139.92"/><polygon class="cls-12" points="131.14 158.7 127.02 165.58 127.02 158.7 131.14 158.7"/><rect class="cls-14" x="110.5" y="161.5" width="10.71" height="10.35"/><polygon class="cls-12" points="82.33 158.7 82.33 161.5 71.62 161.5 71.62 171.85 68.71 171.85 68.71 158.7 82.33 158.7"/><polygon class="cls-12" points="119.92 177.47 118.24 180.28 110.5 180.28 110.5 186.82 107.58 186.82 107.58 177.47 119.92 177.47"/><polygon class="cls-12" points="62.89 177.47 62.89 180.28 53.46 180.28 57.37 186.82 56.15 186.82 50.56 177.47 62.89 177.47"/><polygon class="cls-12" points="82.33 177.47 82.33 180.28 71.62 180.28 71.62 186.82 68.71 186.82 68.71 177.47 82.33 177.47"/><rect class="cls-10" x="53.24" y="191.69" width="64" height="5.18"/><polygon class="cls-11" points="149.23 138.15 149.23 143.33 117.24 196.86 117.24 191.69 149.23 138.15"/><polygon class="cls-11" points="53.24 191.69 53.24 196.86 21.23 143.33 21.23 138.15 53.24 191.69"/></g><g class="cls-9"><rect class="cls-17" x="76.11" y="128.84" width="14.84" height="2.6"/><rect class="cls-18" x="78.48" y="131.18" width="9.65" height="2.6"/><polygon class="cls-19" points="90.95 128.84 90.95 131.44 88.13 133.78 88.13 131.18 90.95 128.84"/><polygon class="cls-20" points="90.95 128.84 88.13 131.18 78.48 131.18 78.48 136.15 76.11 138.71 76.11 128.84 90.95 128.84"/><polygon class="cls-21" points="78.48 136.15 78.48 138.76 76.11 141.31 76.11 138.71 78.48 136.15"/><rect class="cls-17" x="73.9" y="149.54" width="22.67" height="2.6"/><path class="cls-22" d="M93.88,141.21h22.67v22.33H93.88Zm14.23,4,2.82-2.34H96.09v9.87l2.37-2.56v-5h9.65" transform="translate(-19.98 -14)"/></g><path class="cls-23" d="M394.14,127.1h-64l-32,55.43,32,55.42h64l32-55.42Zm9.79,27,2.87,5h-2.87Zm0,10.79h6.23l1.67,2.91L418,178.54H403.93Zm-19.44-32.78h6.74l1.68,2.91,2.66,4.61H384.49ZM320.35,206.7v4.23l-4.11-7.14h4.11Zm0-19.44V198h-7.47L305,184.36h15.34Zm0-19.43v10.71H306.26l7.87-13.62h6.22Zm0-8.73h-2.86l2.86-5Zm19.44,67v6.77h-6.74l-5.59-9.68h12.33Zm0-19.44v10.71H326.17V203.79h13.62Zm0-19.44V198H326.17V184.36h13.62Zm0-19.43v10.71H326.17V164.92h13.62Zm0-19.44V159.1H326.17V145.48h13.62Zm0-13.34v4.61H328.71l4.34-7.52h6.74Zm19.44,91.09v6.77H345.61v-9.68h13.62Zm0-19.44v10.71H345.61V203.79h13.62Zm0-19.44V198H345.61V184.36h13.62Zm0-19.43v10.71H345.61V164.92h13.62Zm0-19.44V159.1H345.61V145.48h13.62Zm0-13.34v4.61H345.61v-7.52h13.62Zm19.44,91.09v6.77H365.05v-9.68h13.62Zm0-19.44v10.71H365.05V203.79h13.62Zm0-19.44V198H365.05V184.36h13.62Zm0-19.43v10.71H365.05V164.92h13.62Zm0-19.44V159.1H365.05V145.48h13.62Zm0-13.34v4.61H365.05v-7.52h13.62Zm16.47,91.09-3.91,6.77h-6.74v-9.68h12.33Zm3-19.44v10.71H384.49V203.79h13.62Zm0-19.44V198H384.49V184.36h13.62Zm0-19.43v10.71H384.49V164.92h13.62Zm0-19.44V159.1H384.49V145.48h13.62Zm5.82,62.54v-7.14h4.12Zm7.47-13h-7.47V184.36h15.34l-1.68,2.9Z" transform="translate(-19.98 -14)"/><rect class="cls-23" x="366.92" y="133.8" width="10.71" height="10.71"/><rect class="cls-23" x="308.6" y="192.12" width="10.71" height="10.71"/><rect class="cls-23" x="308.6" y="133.8" width="10.71" height="10.71"/><rect class="cls-23" x="366.92" y="192.12" width="10.71" height="10.71"/><rect class="cls-23" x="366.92" y="153.24" width="10.71" height="10.71"/><polygon class="cls-23" points="314.43 218.33 319.31 218.33 319.31 211.56 310.96 211.56 314.43 218.33"/><rect class="cls-23" x="366.92" y="172.68" width="10.71" height="10.71"/><polygon class="cls-23" points="290.37 163.95 299.88 163.95 299.88 153.24 296.56 153.24 290.37 163.95"/><polygon class="cls-23" points="294.6 183.39 299.8 183.39 299.8 172.68 289.44 172.68 294.6 183.39"/><polygon class="cls-23" points="312.82 125.08 319.31 125.08 319.31 120.47 315.48 120.47 312.82 125.08"/><rect class="cls-23" x="328.04" y="120.47" width="10.71" height="4.61"/><polygon class="cls-23" points="366.92 125.08 375.09 125.08 372.43 120.47 366.92 120.47 366.92 125.08"/><rect class="cls-23" x="347.48" y="120.47" width="10.71" height="4.61"/><rect class="cls-23" x="347.48" y="192.12" width="10.71" height="10.71"/><rect class="cls-23" x="328.04" y="211.56" width="10.71" height="6.77"/><polygon class="cls-23" points="386.36 183.39 390.93 183.39 397.11 172.68 386.36 172.68 386.36 183.39"/><rect class="cls-23" x="328.04" y="153.24" width="10.71" height="10.71"/><rect class="cls-23" x="328.04" y="172.68" width="10.71" height="10.71"/><rect class="cls-23" x="347.48" y="153.24" width="10.71" height="10.71"/><rect class="cls-23" x="347.48" y="172.68" width="10.71" height="10.71"/><polygon class="cls-23" points="385.83 163.95 397.02 163.95 390.83 153.24 385.83 153.24 385.83 163.95"/><rect class="cls-23" x="347.48" y="211.56" width="10.71" height="6.77"/><rect class="cls-23" x="308.6" y="172.68" width="10.71" height="10.71"/><polygon class="cls-23" points="366.92 218.33 370.75 218.33 374.66 211.56 366.92 211.56 366.92 218.33"/><rect class="cls-23" x="347.48" y="133.8" width="10.71" height="10.71"/><rect class="cls-23" x="328.04" y="192.12" width="10.71" height="10.71"/><rect class="cls-23" x="328.04" y="133.8" width="10.71" height="10.71"/><rect class="cls-23" x="308.6" y="153.24" width="10.71" height="10.71"/><path class="cls-1" d="M93.87,246.83a2.06,2.06,0,0,1,.63,1.56,4.38,4.38,0,0,1-.93,2.76,3.63,3.63,0,0,1-2.92,1.26,39.83,39.83,0,0,1-8.52-.72A52.32,52.32,0,0,1,72,266.55q-5.91,5.91-11.68,5.91-5.28,0-7.93-5.61t-3-15q-3.6,10.44-8.13,15.55t-9.64,5.1q-5.76,0-8.71-7.17T20,246a133.67,133.67,0,0,1,1.56-19.4,7.67,7.67,0,0,1,1.53-4.17,4.64,4.64,0,0,1,3.51-1.17,4.42,4.42,0,0,1,2.8.78,3.5,3.5,0,0,1,1,2.88q0,.42-.12,1.62a148.46,148.46,0,0,0-1.8,21q0,8,1.38,12.43t3.72,4.38q2.1,0,5.07-4.41a57.27,57.27,0,0,0,5.92-13.09,136.4,136.4,0,0,0,5-20.69,6.13,6.13,0,0,1,1.77-3.81,5.41,5.41,0,0,1,3.52-1.05,3.91,3.91,0,0,1,2.73.81,3.16,3.16,0,0,1,.87,2.43,7.28,7.28,0,0,1-.12,1.5,115.45,115.45,0,0,0-1.68,19.57,98.74,98.74,0,0,0,.45,10.63,14.78,14.78,0,0,0,1.74,6,4.16,4.16,0,0,0,3.75,2.07q2.88,0,6.43-4.35a49.86,49.86,0,0,0,6.48-10.84,14.85,14.85,0,0,1-5.52-5.92,18.1,18.1,0,0,1-1.86-8.37,19.51,19.51,0,0,1,1.47-8,10.86,10.86,0,0,1,4-4.89,10.36,10.36,0,0,1,5.67-1.62,7.45,7.45,0,0,1,6.1,2.76,11.63,11.63,0,0,1,2.25,7.56,45.45,45.45,0,0,1-2.94,15.07,41.87,41.87,0,0,0,7.2.55A2.87,2.87,0,0,1,93.87,246.83Zm-16-3.73A35.36,35.36,0,0,0,80.27,232a7.81,7.81,0,0,0-.67-3.69,2,2,0,0,0-1.8-1.17A3,3,0,0,0,75.16,229a11.53,11.53,0,0,0-1,5.38Q74.14,240.28,77.92,243.1Z" transform="translate(-19.98 -14)"/><path class="cls-1" d="M87.71,269.76a10.79,10.79,0,0,1-2.22-7.08,19.55,19.55,0,0,1,2.22-9.1,18.88,18.88,0,0,1,5.92-6.9,13.27,13.27,0,0,1,7.83-2.62,2.34,2.34,0,0,1,1.77.51,4.36,4.36,0,0,1,.75,1.84,14.12,14.12,0,0,1,2.65-.24q2.94,0,2.94,2.1a45,45,0,0,1-.9,6,58.45,58.45,0,0,0-1.38,9.61,2.18,2.18,0,0,0,.45,1.44,1.45,1.45,0,0,0,1.17.54,4.56,4.56,0,0,0,2.76-1.47,51.32,51.32,0,0,0,4.38-4.77,2.12,2.12,0,0,1,1.62-.85,1.38,1.38,0,0,1,1.23.73,3.63,3.63,0,0,1,.46,2,5.52,5.52,0,0,1-1.15,3.72,30.23,30.23,0,0,1-5.22,5.16,8.84,8.84,0,0,1-5.34,2.1,5.63,5.63,0,0,1-3.64-1.35,8.23,8.23,0,0,1-2.49-3.69q-3.12,5-7.86,5A7.3,7.3,0,0,1,87.71,269.76Zm10.63-4.92a10.12,10.12,0,0,0,1.74-4.14l2.22-11a7.27,7.27,0,0,0-4.65,1.89,12.73,12.73,0,0,0-3.39,4.83A16.34,16.34,0,0,0,93,262.74a4.19,4.19,0,0,0,.75,2.76,2.55,2.55,0,0,0,2.07.9A3.29,3.29,0,0,0,98.34,264.84Z" transform="translate(-19.98 -14)"/><path class="cls-1" d="M158.32,257.87q0,4.81-7.68,4.81-.3,0-3.36-.18a67.87,67.87,0,0,1,1.05,7.23q.39,4.06.39,8.08,0,6.48-2.19,9.91t-5.62,3.42q-4.32,0-6.15-6.13t-1.83-18.49q0-3.18.17-6.42c-.35,0-.94.06-1.74.06q-1.62,0-2.64.06.6,4.44.93,8.52c.22,2.72.33,5.75.33,9.07q0,6.48-2.19,9.91t-5.61,3.42q-4.34,0-6.16-6.13t-1.83-18.49a122.52,122.52,0,0,1,2.31-23.45,70.33,70.33,0,0,1,6.46-19.6q4.14-7.75,9.36-7.75a4.85,4.85,0,0,1,4.24,2.25,11.46,11.46,0,0,1,1.53,6.46A36.74,36.74,0,0,1,134.58,239q-3.53,8-12.4,16.84a101.21,101.21,0,0,0-.54,10.27q0,6.18.42,12.7c.28,4.34.74,6.52,1.38,6.52s1.08-.51,1.44-1.51a15.14,15.14,0,0,0,.54-4.74c0-3.92-.15-7.4-.45-10.42a66.79,66.79,0,0,0-1-7.29,4.92,4.92,0,0,1-.12-1.26,5.27,5.27,0,0,1,2.07-4.27,8.7,8.7,0,0,1,5.49-1.74h2.29a109.68,109.68,0,0,1,3.75-18.76,49.72,49.72,0,0,1,6.36-14.2q3.75-5.41,8.08-5.41a5,5,0,0,1,4.41,2.52,12.64,12.64,0,0,1,1.59,6.79,41.27,41.27,0,0,1-2,11.83A45.28,45.28,0,0,1,150,249.14a26.14,26.14,0,0,1-9.22,8.61,80.6,80.6,0,0,0-.42,8.35q0,6.18.42,12.7c.28,4.34.74,6.52,1.38,6.52s1.08-.51,1.44-1.51a15.14,15.14,0,0,0,.54-4.74,80.2,80.2,0,0,0-.48-8.95q-.48-4.26-1-7a6.28,6.28,0,0,1,1.56-5.5,5.26,5.26,0,0,1,3.85-1.71q2,0,3.75-.15l2.19-.21q2-.24,2.64-.24Q158.32,255.35,158.32,257.87Zm-29.81-32.54a70.72,70.72,0,0,0-2.91,9.73q-1.44,6.06-2.46,12.91A38.78,38.78,0,0,0,130,236.23a34,34,0,0,0,2.31-11.5,5.64,5.64,0,0,0-.36-2.28q-.36-.78-.9-.78Q130,221.67,128.51,225.33Zm19.16.54a79.93,79.93,0,0,0-3.37,11q-1.65,6.78-2.73,14a22.23,22.23,0,0,0,5.8-7.21,40,40,0,0,0,3.54-9.42,39.11,39.11,0,0,0,1.17-8.95q0-3.66-1.5-3.66Q149.38,221.67,147.67,225.87Z" transform="translate(-19.98 -14)"/><path class="cls-1" d="M179,259.5a3.72,3.72,0,0,1,.45,2,5.52,5.52,0,0,1-1.14,3.72,25.85,25.85,0,0,1-5.61,5.22,12,12,0,0,1-6.88,2,8.35,8.35,0,0,1-7.84-4.8q-2.55-4.8-2.55-12.43a85.4,85.4,0,0,1,1.89-16.69,56.56,56.56,0,0,1,5.59-16.09q3.69-6.73,8.79-6.73a5.1,5.1,0,0,1,4.54,2.67q1.65,2.69,1.65,7.66,0,7.14-4,16.57a92.37,92.37,0,0,1-10.75,18.68,7,7,0,0,0,1.38,3.51,3.25,3.25,0,0,0,2.52,1.05,7,7,0,0,0,4.32-1.41,32.88,32.88,0,0,0,4.75-4.83,2.12,2.12,0,0,1,1.62-.85A1.38,1.38,0,0,1,179,259.5Zm-11.74-32.85A82,82,0,0,0,164.15,239a89.59,89.59,0,0,0-1.44,14.17,77.4,77.4,0,0,0,6.78-14.08A38.62,38.62,0,0,0,172,226.23q0-4.56-1.68-4.56Q169,221.67,167.21,226.65Z" transform="translate(-19.98 -14)"/><path class="cls-1" d="M197.26,261.3a3.72,3.72,0,0,1,.45,2,6.65,6.65,0,0,1-1,3.72,11.68,11.68,0,0,1-4.41,4,13.67,13.67,0,0,1-6.52,1.44c-3.84,0-6.82-1.14-8.94-3.45s-3.18-5.41-3.18-9.33a17.37,17.37,0,0,1,1.74-7.72,14.25,14.25,0,0,1,4.83-5.67,12.09,12.09,0,0,1,7-2.11,7.18,7.18,0,0,1,7.68,7.69,9.74,9.74,0,0,1-3,7.12q-3,3-10.12,4.71a5,5,0,0,0,4.87,2.76,6.78,6.78,0,0,0,4.05-1.14,19.59,19.59,0,0,0,3.69-3.84,2.06,2.06,0,0,1,1.62-.9A1.39,1.39,0,0,1,197.26,261.3Zm-14.83-8.65a12,12,0,0,0-1.53,6.24V259a13.51,13.51,0,0,0,5.58-2.52,4.93,4.93,0,0,0,2.05-3.9,2.61,2.61,0,0,0-.63-1.83,2.2,2.2,0,0,0-1.71-.69Q184,250.07,182.43,252.65Z" transform="translate(-19.98 -14)"/><rect class="cls-23" x="310.23" y="225.32" width="64.03" height="3.49"/><polygon class="cls-23" points="277.27 169.59 309.39 225.23 309.39 228.81 277.3 172.59 277.27 169.59"/><polygon class="cls-23" points="406.99 169.59 374.87 225.23 374.86 228.81 406.95 172.59 406.99 169.59"/></svg>